<?xml version="1.0" encoding="UTF-8"?>
<svg xmlns="http://www.w3.org/2000/svg" xmlns:xlink="http://www.w3.org/1999/xlink" version="1.1" viewBox="0 0 478.7 137.3">
  <defs>
    <style>
      .cls-1 {
        fill: none;
      }

      .cls-2 {
        fill: #bd5eb0;
      }

      .cls-3 {
        fill: #fabb00;
      }

      .cls-4 {
        fill: #ffe070;
      }

      .cls-5 {
        clip-path: url(#clippath);
      }
    </style>
    <clipPath id="clippath">
      <path class="cls-1" d="M360.6,4.1c0-.7-1-.9-1.4-.3l-37.9,64-8.8,14.8-15.7,26.5c-1,1.8,63.5,4.2,82.1.2,5.4-1.1,9.2-6,9.1-11.6l-27.4-93.7h0Z"/>
    </clipPath>
  </defs>
  <!-- Generator: Adobe Illustrator 28.7.8, SVG Export Plug-In . SVG Version: 1.2.0 Build 200)  -->
  <g>
    <g id="_레이어_1">
      <g>
        <path class="cls-2" d="M62.7,24.1h0c-1.6-.9-3-1.8-4.5-2.8-3.5-2.6-8.3-4.6-15.3-6.4-1.8-.5-5.6-1.1-16.8-.6-9.4.6-11.2.9-16.3,3.3-4.9,2.4-7.5,7.7-6.5,13,.8,4.4,3.8,7.6,7.9,8.8l-.2,1.8h0c-.1,2-.7,4.7-1.3,7.1-1,3.4-1.4,6.9-1.2,10.2.1,6.4-1.2,8-1.7,8.4-3.1,2.6-4.7,6.3-4.1,10.1.6,4.1,3.4,7.7,7.6,9.6,0,.9,0,1.9,0,3.2,0,1.4,0,3,.1,5,.1,6,0,9.6-.2,11.6l-.2,1.4c-1.7,12.8,4.8,15.9,8.7,16.7.8.2,1.6.2,2.3.2,4.2,0,7.4-2.5,9.1-7.1h0c1.3-4.1,1.8-11.5,1.5-23.3,0-2.4,0-4.2,0-5.4,1-.1,2.6-.2,5.1-.3,2.3,0,4.8-.3,7.3-.8h.2c.4-.1.9-.2,1.5-.3,1.1-.2,2.5-.5,4.3-.9,8.5-1.8,17.3-5.2,18.4-17.1.1-1.4.4-2.2.5-2.6l.2-.6c.4-1.4.5-3.1.5-5.3s1.1-8.5,1.9-11c4.8-14.5-2.2-22.2-8.9-26h0ZM30.1,58.4c-.1-3.6.1-4.8.3-5.2v-.2c.6-1.6.9-2.9,1-4,0-.3.1-.6.1-.7.6-1.1.8-2.5,1-4.7v-.3c0-1.4.8-3.2,2.2-5.3.6-.8,1.3-1.9,1.6-3.1.7,0,1.7.3,3.2.8,2.9.9,4.9,1.8,6.2,2.9l4.6,2.8c.6.3.9.6,1.1.7,0,1.1-.9,3.8-1.2,4.8-.8,2.7-1.2,6-1.7,10.2h0c-.1,1.8-.4,3.8-.8,5.7-.3,1.5-.6,2.6-.8,3.1-.3.1-.8.3-1.5.4-.7.1-1.4.3-2,.4-1.1.2-2,.4-2.7.5h-.7c0,0-.2.2-.2.2-2.4.5-7.4.7-10.7.7.1-.5.3-1.1.5-1.8.6-1.9.6-4.5.4-7.9h0Z"/>
        <path class="cls-2" d="M97.8,61.9c-.2-1.8-.6-3.6-1.1-5.5-.3-1.1-.4-1.7-.4-1.9,0-.2.1-.7.4-1.5v-.3c.6-2.2.9-5,.9-8.4s.3-5.3.6-6.6c1.1-5,1.6-7.5,1.8-9.2.2-2.2-.3-4.2-.7-5.7v-.2c-2-5.1-7.7-8.1-13.9-7.1-4.2.7-7.6,3.1-9.2,6.6-1.6,3.4-1.3,7.2.7,10.7.2.4.3.6.3.7-.7,3-1.1,6.3-1.1,9.5s-.2,4.2-.2,4.3c-.7,1.5-.9,3.4-.9,7.2s.3,5.8,1.1,7.1c0,0,.2.5.3,2,.2,2.3.6,4.2,1.4,6.1.5,1.3.7,2.4.7,3.3-.1,6.4-.4,11.8-.8,15.9-.4,2.9-.6,5.5-.6,7.7-.2,3.4-.8,6.8-2.1,10.2h0c-1.8,4.5-1.4,9.9.9,13.1v.2c2.5,2.9,5.7,4.5,8.9,4.5s1.2,0,1.9-.2c3.6-.7,6.4-3.4,7.6-7.2.2-.7.4-1.2.5-1.7,0-.2,0-.3.1-.4l.3-.9c1.9-5.6,3-11.1,3.3-16.5l.8-9.6.4-7.6v-.3c-.1-1.2,0-2.8.3-4.7.7-3.9.2-7.7-1.4-11.1-.5-1.1-.7-1.9-.8-2.7h0Z"/>
        <path class="cls-2" d="M178.3,33.6c-.2-.2-.6-.5-1.1-1.4h0c-3.1-4.3-8.6-8.6-13-8.8-.3-.1-1.2-.6-3.1-2.2h-.1c-4.4-3.5-9.4-4.8-14.9-4-2.9.4-6,1.5-9.1,3.4-.3.1-1.3.5-4.3,1.4h-.1c-5,1.8-9.9,4.2-14.9,7.5h0c-10.7,7.5-14.2,12.9-15.4,24.1-.7,8.4-1.1,13.9-1,17.5.2,4.1.9,7.6,2.3,10.5l.2.5c.7,1.9,1.9,4.8,3.2,9,1.6,4.8,1.8,5.2,3.8,8.4l.4.7c1,1.8,1.5,3,1.7,3.6,1.6,5.4,3.8,8.8,7.6,10.9l-2.7,1.4,13.1,1.1c6,.5,7.4,1.2,9.7,3.1,3.4,3,6.9,4.6,10.4,4.6s7.5-1.6,11.6-4.7c8.3-6.3,10.8-7.3,11.3-7.5,5-.2,9-3.5,10.1-8.5,1.1-5.2-1.3-10.3-6.1-12.7-3.1-1.6-6.4-2-9.5-1-2.5.8-5.9,2.9-11.1,6.7-3.6,2.5-5.2,3.6-6,4-4.5-3.2-11.2-5.6-17.2-6.2h-1.2c-.2-.1-.4-.1-.6-.2l-.2-.5c-.7-1.5-1.5-3-2.4-4.4-1.7-2.7-2.6-4.8-3-6.4-.2-1.3-.6-2.4-1.2-3.4,0-1-.4-2-1.1-3-2-3.7-2.6-8.1-.8-22.9h0c0-.8.2-1.5.3-1.8.2-.2.5-.5.7-.7,3.8-3.5,8.8-6.3,14.9-8.4h.1c.7-.3,1.4-.6,2.1-.8,1.7-.6,3.2-1.2,4.6-1.8,2.4-1.2,3.4-1,3.6-.9,2.9,2.3,5.2,3.8,7.5,4.6l2.9,1c.2.1.8.6,2.2,2.3,3.5,4.2,6.8,6.7,10.1,7.8.8.3,1.7.7,2.9,1.4,5.4,3,10.6,1.5,13.9-4,1.8-2.9,2-6.7.4-10.3-2-4.5-6.3-7.9-11.1-8.9h0Z"/>
        <path class="cls-2" d="M263.5,87.8h-.2c-1.9-.3-2.1-.4-6-3.1-3-2.3-8.3-6.8-9.3-7.8-2.4-3-6.8-6.1-14.5-4.2.4-2.2.7-4.5.7-5.6,0-1.7,1.8-7.1,3.1-9,.7-1,2.3-2,4.6-2.7,5.2-1.3,12-7.1,14.5-11.3v-.3c.7-1.1,1.5-2.2,2.4-3,3.3-3.2,4.3-7.7,2.7-11.6-1.6-4-5.7-6.4-10.5-6.4s-8.6,1.4-11.9,8c-1.7,3.4-1.9,3.8-8,5.9-7,2.6-13.1,9.1-15.6,16.5l-.2.7c0-.3,0-.5,0-.7,0-.2,0-1.1.8-2.7,1.5-2.8,2.2-4.5,2.4-5.9h0c.1-.9.3-1.5.6-2.2v-.3c.7-1.6.9-4.1.9-8.7s-.2-7-1-8.5v-.3c-.3-.3-.4-.5-.5-.9v-.3c-.8-3.3-2.8-6.1-5.8-7.7-3-1.7-6.6-1.9-9.9-.8-4.9,1.7-7.3,8.1-5.3,14.1.8,2.2,1,4.5.6,7-.2,1.7-1.3,4.2-3.1,7.7-2.8,5.3-2.4,9.1.4,19.5h0c.3,1,.4,2,.4,3.1,0,1.7.3,3.7.8,6.5v.2c1,4.3,1,5-.3,11.6-.7,3.8-1.3,7-1.6,9.8-.8,8.9-1.8,12.7-2.2,14l-.2.4c-1.5,3.5-1.5,7.1,0,10,1.4,2.8,4.1,4.8,7.6,5.6.6.1,1.2.2,1.8.2,2,0,4.1-.7,5.9-2.1,3.9-2.9,6.6-8.4,7.1-14.2.1-1.6.4-3.5.8-5.4.4-2.2.6-4.3.6-6.3s.1-2.4.3-3v-.3c.2-.2.2-.4.2-.5,4,2,7.9,2.1,13.6,1.7,2.7-.2,5-.3,5.5,0,.2.1.9.8,1.4,1.3l.3.3c2.1,2,4.1,3.6,6,4.9l5.1,3.4c6.1,4.5,13.4,5.7,18.7,3.1,3.7-1.8,5.8-5.3,5.8-9.5s-.9-8.4-9.4-10.1h0Z"/>
      </g>
      <g>
        <path class="cls-2" d="M338.8,16c-1.5.4-2.4.8-3.1,1.2-1.6.8-3.6,1.2-6.2,1.1-4.1-.3-8.5.3-13.2,1.7-1.7.5-4.4.8-8.3.8-10.2.1-13.8.6-16.5,8.6-.7,2-1.6,4-2.7,6-2.9,5.3-4.9,10.1-6.1,14.2v.2c0,.2-.2.6-.3,1l21.9,1.4c.5-1.3,1.5-3.4,2.6-5.1l.2-.3c.7-1,1.2-1.6,1.4-2.4.3-.5,1-1.5,1.6-2.2.5,0,1.3,0,2.3,0h.2c2.6-.2,5.2-.7,7.9-1.4,3.2-.9,3.2-1,8.8-1,4.3.2,5.7,0,6.4,0,.8-.1,1.6-.4,2.6-.7l12.9-21.7c-3.3-2.3-7.9-2.9-12.4-1.5Z"/>
        <path class="cls-2" d="M325.2,124.8c1.7,0,3.4-.3,4.9-.9.8-.3,1.6-.7,2.3-1.2l-9.8,1.9c.9.1,1.8.2,2.7.2Z"/>
        <path class="cls-2" d="M343.3,59.4c0,0-.1,0-.2,0h0c0,0,.1,0,.2,0Z"/>
      </g>
      <path class="cls-3" d="M360.4,135.5c21.5,0,43-7.7,60-23,2.1-1.9,2.6-4.9,1.2-7.3l-18.5-31.2h0l-8.8-14.8-25.3-42.7c-3.9-6.6-13.4-6.6-17.3,0l-30.4,51.3-8.8,14.8h0l-12.8,21.5c-1.8,3-1.1,6.8,1.5,9.2,16.9,14.8,38,22.2,59.1,22.2h0s0,0,0,0Z"/>
      <g class="cls-5">
        <path class="cls-4" d="M360.4,135.5c21.5,0,43-7.7,60-23,2.1-1.9,2.6-4.9,1.2-7.3l-18.5-31.2h0l-8.8-14.8-25.3-42.7c-3.9-6.6-13.4-6.6-17.3,0l-30.4,51.3-8.8,14.8h0l-12.8,21.5c-1.8,3-1.1,6.8,1.5,9.2,16.9,14.8,38,22.2,59.1,22.2h0s0,0,0,0Z"/>
      </g>
      <path class="cls-2" d="M472.4,29.1c-3-3.3-8.8-6.8-18.8-5.1-4.8.8-9,1.4-12.9,1.6-2.6.1-4.2.3-5.3.5.1-3-1-5.9-3.1-8.1-3.4-3.5-8.5-4.5-13.1-2.4h0c-1.8.8-4.3,3.6-5.2,5.9-3-1.2-5.6-1.9-7.9-2.2-9-1.2-15.6-1.2-20,0h-.1c-5.4,1.7-8.5,5.6-8.5,10.8s1.5,6.4,4.2,8.3c3.2,2.3,7.6,2.9,12,1.5.6-.2,2.9-.7,9.4.3,1.6.4,3.5,1.2,5.6,2.3l1.7,1v1.2c-.7,13.5,0,19.5,4.5,26,.3.5.8,1.6,1.2,4,.4,2.2.6,6.3.8,12.3l.6,9.5c0,.2-.1.4-.3.8-2,3.4-3.2,6.7-3.7,9.6l-1.5,9.1,1.1-.8c.3,2.3,1.2,4.5,3.2,6.3,2.2,2,4.9,3.1,7.6,3.1s2.4-.2,3.6-.6c3.6-1.4,6.2-4.8,6.6-8.9.2-2.9,1.1-5.5,2.5-7.8,2.3-3.7,3.2-7.7,2.7-12.1l-.6-9.6c-.4-8.7-.8-15.5-1.1-18v-.3c-.6-2.8-2-5.3-4-7.5-1.4-1.6-1.7-2.1-1.7-8.5v-3c.1,0,.3,0,.4,0h.5c2.6-.4,4.7-.7,6.8-1.1h.2c1.4-.4,2.6-.6,3.6-.6,1.5,0,2.9-.1,4.3-.2h.8c.8-.2,1.6-.3,2.5-.4,2.2-.3,4.7-.7,7.4-1,0,0,.1,0,.2.2,3.9,3.4,7.4,3.6,9.7,3.2,3-.5,5.6-2.6,7.4-5.7,2.1-4,1-9.5-2.9-13.4h0Z"/>
      <g>
        <path class="cls-2" d="M347,15.7c.5.1.9.3,1.4.4-.5-.2-.9-.3-1.4-.4Z"/>
        <path class="cls-2" d="M282.6,50.5s0,0,0-.1c0,0,0,0,0,.1Z"/>
        <path class="cls-2" d="M304.5,52.1c0-.1,0-.2.1-.3,0,.1,0,.2-.1.3Z"/>
        <path class="cls-2" d="M342,15.3c-.5,0-1,.1-1.5.2.5,0,1-.2,1.5-.2Z"/>
        <path class="cls-2" d="M304.7,51.4c0-.1.1-.3.2-.4,0,.1-.1.3-.2.4Z"/>
        <path class="cls-2" d="M348.5,16.1c.9.4,1.8.8,2.7,1.4-.8-.6-1.7-1-2.7-1.4Z"/>
        <path class="cls-2" d="M331.3,123.4c-.4.2-.8.4-1.2.5.4-.2.8-.3,1.2-.5Z"/>
        <path class="cls-2" d="M340.3,15.6c-.5.1-1,.2-1.5.4.5-.2,1-.3,1.5-.4Z"/>
        <path class="cls-2" d="M322.5,124.6c.5,0,.9.1,1.3.2-.4,0-.9,0-1.3-.2Z"/>
        <path class="cls-2" d="M345.4,15.4c.5,0,1,.2,1.5.3-.5-.1-1-.2-1.5-.3Z"/>
        <path class="cls-2" d="M306.5,48c.2-.3.3-.5.5-.8-.2.3-.3.5-.5.8Z"/>
        <path class="cls-2" d="M342.3,15.3c.5,0,1,0,1.5,0-.5,0-1,0-1.5,0Z"/>
        <path class="cls-2" d="M357.1,70.6h0c-.7-4.6-4.3-8.5-9.1-9.8l-4.7-1.4c-9.4-3.1-28.4-4.6-39.6-4,.1-.7.2-1.4.2-2.1,0-.2.2-.6.4-1l-21.9-1.4s0,0,0,0c-.2.8-.4,1.7-.6,2.3-4,.7-7.1,3.6-8.1,7.7-1.2,4.9.9,10,5.2,12.7,0,0,0,.2,0,.4,0,.8-.4,2.8-2.2,7.2-1.9,4.5-2.4,8.3-1.5,11.8,1.7,7.5,4.1,12.8,7.2,16.2l.3.3c.9,1,2,2.2,3.1,3.7.7.9,1.5,1.8,2.2,2.5l7.3,4.1c2.9.8,6.1.7,9.5-.1h.2c3-.7,5.8-.3,8.4,1.3,3,1.9,6.1,3,9.1,3.5l9.8-1.9c-.3.2-.7.5-1.1.7,2.4-1.3,4-3.3,4.8-5.9h0c.4-1.8.3-3.6-.2-5.3h.3c0,0-.3,0-.3,0-.5-1.6-1.2-3.1-2.3-4.4-2.1-2.7-5-4.3-7.9-4.5-.3-.1-1-.4-2.4-1-7.6-3.8-14.9-5-21.5-3.7,0,0-.2,0-.4,0-.3-.4-.7-.9-1.2-1.4l-.3-.3c-2-2.5-4.2-5.9-3.1-8.5,1.9-4.4,3-8.2,3.4-11.2v-.2c1.3,0,3.5,0,6.6,0,1.3.1,2.2.2,2.9.1,18.3.1,21.1.7,30.2,3.9,4.7,1.6,8.7,2.6,12.6-.2,3.4-2.3,5.1-6.2,4.5-10.2Z"/>
        <path class="cls-2" d="M306,48.9c.1-.2.2-.4.3-.6-.1.2-.2.4-.3.6Z"/>
        <path class="cls-2" d="M336.8,39.7c-.4.1-.8.2-1.1.3.3,0,.7-.2,1.1-.3Z"/>
        <path class="cls-2" d="M338.3,39.2c-.4.1-.8.3-1.2.4.4-.1.8-.2,1.2-.4Z"/>
        <path class="cls-2" d="M343.9,15.3c.5,0,1,0,1.5.1-.5,0-1,0-1.5-.1Z"/>
        <path class="cls-2" d="M305.1,50.7c.1-.2.2-.5.4-.8-.1.3-.3.5-.4.8Z"/>
        <path class="cls-2" d="M305.5,49.8c.1-.2.2-.4.3-.7-.1.2-.2.4-.3.7Z"/>
        <polygon class="cls-2" points="338.3 39.2 338.3 39.2 338.3 39.2 338.3 39.2"/>
        <path class="cls-2" d="M345.4,15.4s0,0,0,0c0,0,0,0,0,0Z"/>
        <path class="cls-2" d="M346.9,15.6s0,0,.1,0c0,0,0,0-.1,0Z"/>
        <path class="cls-2" d="M343.8,15.3s0,0,.1,0c0,0,0,0-.1,0Z"/>
        <polygon class="cls-2" points="351.1 17.5 351.1 17.5 351.1 17.5 351.1 17.5"/>
        <path class="cls-2" d="M348.4,16.1s0,0,0,0c0,0,0,0,0,0Z"/>
        <path class="cls-2" d="M342.3,15.3c0,0-.2,0-.3,0,0,0,.2,0,.3,0Z"/>
        <path class="cls-2" d="M337,39.6c0,0-.2,0-.2,0,0,0,.2,0,.2,0Z"/>
        <path class="cls-2" d="M304.6,51.8c0-.1,0-.2.1-.3,0,.1,0,.2-.1.3Z"/>
        <path class="cls-2" d="M304.9,51c0,0,0-.2.1-.3,0,.1,0,.2-.1.3Z"/>
        <path class="cls-2" d="M305.4,50c0,0,0-.1,0-.2,0,0,0,.1,0,.2Z"/>
        <path class="cls-2" d="M306.3,48.3c0,0,0-.2.1-.3,0,0,0,.2-.1.3Z"/>
        <path class="cls-2" d="M304.5,52.1c0,.1,0,.2-.1.3h0c0,0,0-.2.1-.3Z"/>
        <path class="cls-2" d="M305.9,49.1c0,0,0-.2.1-.3,0,0,0,.2-.1.3Z"/>
        <path class="cls-2" d="M340.6,15.5c0,0-.2,0-.2,0,0,0,.2,0,.2,0Z"/>
        <path class="cls-2" d="M282.5,51c0-.2,0-.4.1-.5,0,.2,0,.3-.1.5Z"/>
        <path class="cls-2" d="M282.6,50.4c0-.1,0-.3,0-.4,0,.1,0,.2,0,.4Z"/>
        <path class="cls-2" d="M331.3,123.4s0,0,0,0c0,0,0,0,0,0Z"/>
        <path class="cls-2" d="M323.9,124.8c.4,0,.9,0,1.3,0-.4,0-.9,0-1.3,0Z"/>
        <polygon class="cls-2" points="322.5 124.6 322.5 124.6 322.5 124.6 322.5 124.6"/>
      </g>
      <path class="cls-4" d="M351.1,56.5l2.3,12.2c-.6,3.2-10,7.4-12.7,9.2l-15.6,6.2,18.5,1.7c6.6.6,12.6-3.8,14-10.3l4.1-19h-10.6Z"/>
    </g>
  </g>
</svg>