<?xml version="1.0" encoding="UTF-8"?>
<svg id="_레이어_2" data-name="레이어_2" xmlns="http://www.w3.org/2000/svg" viewBox="0 0 1000 1000">
  <defs>
    <style>
      .cls-1 {
        stroke: #000;
        stroke-miterlimit: 10;
        stroke-width: 16px;
      }
    </style>
  </defs>
  <path d="M933.81,411.47c-2.18-16.61-6.32-29.54-13.02-40.71-1.4-2.34-2.4-5.35-3.46-8.53l-.5-1.49c-5.27-15.66-12.13-33.94-23.01-50.8-1.72-2.67-3.35-5.38-5.06-8.25-1.66-2.77-3.37-5.64-5.18-8.45l-1.59-2.48c-7.77-12.13-15.81-24.66-27.1-34.96-14.65-13.36-30.88-27.09-50.31-36.99-3.35-1.71-6.69-3.43-10.03-5.15-9.95-5.14-20.25-10.45-30.67-15.24-9.95-4.57-20.38-8.09-29.38-11.02-30.96-10.11-63.24-13.63-94.46-17.04l-5.67-.62c-14.52-1.6-29.25-2.21-43.49-2.8-2.89-.12-5.79-.24-8.68-.37l-5.13-.23c-15.73-.71-32-1.44-48.09-1.32-22.18.17-45.65,2.54-73.87,7.48-3.65.64-7.31,1.25-10.97,1.86-13.51,2.26-27.47,4.6-41.04,8.27-48.23,13.06-93.04,31.32-133.19,54.28-31.1,17.79-58.87,42.72-82.53,74.11-26.46,35.1-47.99,76.63-65.81,126.95-2.04,5.77-4.04,11.63-5.96,17.31-2.83,8.33-5.76,16.94-8.85,25.27-10.36,27.86-16.85,56.17-19.29,84.14-1.29,14.8-2.02,29.81-2.72,44.34-.23,4.71-.46,9.41-.7,14.12-.26,4.99-.15,9.36.33,13.35.59,4.84,1.13,9.79,1.65,14.58,1.81,16.57,3.68,33.71,7.85,50.48,1.92,7.71,3.74,14.65,6.62,21.43,4.88,11.5,10.32,22.88,15.59,33.89l1.68,3.51c3.52,7.38,8.63,16.8,16.94,24.32.61.55,1.35,1.58,2.13,2.68l.51.72c6.08,8.42,12.9,16.43,20.87,24.49,13.25,13.42,29.01,21.2,41.25,26.48,9.25,3.99,18.47,6,27.47,6,.85,0,1.71-.02,2.55-.05,2.49-.11,5.02-.08,7.71-.06,2.04.02,4.14.04,6.27,0,16.04-.31,28.19-8.37,34.22-22.71,6.98-16.61,5.17-33.38-5.08-47.23-5.67-7.67-13.14-13.46-20.37-19.07l-1.07-.83c-6.07-4.72-12.95-8.24-19.02-11.34-4.76-2.44-9.64-3.96-14.11-4.39-9.5-.93-18.06,4.96-20.83,14.33-2.53,8.55,1.01,17.66,8.81,22.66.91.58,1.82,1.18,2.73,1.77,4.42,2.88,9,5.85,14.07,8.22,5.15,2.4,9.53,6.28,14.18,10.38l.96.85c1.42,1.25,2.25,2.74,2.13,6.1-.99.03-1.98.07-2.94.1-5.6.21-10.9.4-15.69-.91-16.91-4.62-31.48-14.61-44.52-30.54-1.57-1.92-3.06-3.96-4.63-6.11-2.47-3.39-5.03-6.9-8.11-10.17-3.94-4.19-6.98-8.62-9.31-13.56-6.71-14.24-12.08-25.82-16.92-36.46-1.17-2.57-2.32-5.31-2.78-7.87-.8-4.42-1.7-8.86-2.57-13.15-2.27-11.17-4.42-21.72-4.97-32.56-.14-2.66-.45-5.2-.76-7.66-.26-2.09-.51-4.06-.63-5.98l-.1-1.53c-.41-6.4-.79-12.44-.72-18.5.1-8.77.53-17.51,1.14-27.93,1.38-23.52,3.9-42.44,7.95-59.56,3.57-15.1,8.67-30.06,13.17-42.89,1.55-4.42,3.08-8.85,4.62-13.28,7.37-21.29,15-43.3,24.41-64.04,20.48-45.1,42.54-78.27,69.42-104.38,15.56-15.12,31.64-27.17,49.13-36.85,21.85-12.08,45.17-22.63,71.28-32.26,20.42-7.52,38.92-14.06,58.6-17.8,11.63-2.21,23.65-4.5,35.72-6.52,35.82-6,65.1-8.19,92.1-6.89,13.33.64,26.9,1.35,40.01,2.04,6.97.37,13.93.73,20.9,1.09,24.85,1.28,50.66,4.45,76.71,9.43,49.29,9.43,93.52,30.52,131.45,62.69,6.26,5.31,10.71,10.09,14.01,15.06,3.35,5.05,6.72,10.25,9.97,15.27,3.54,5.47,7.19,11.12,10.88,16.65,9.57,14.35,15.64,30.01,20.33,43.43,1.68,4.83,3.73,9.45,5.7,13.91,1.22,2.76,2.37,5.36,3.45,8.02.33.8.66,1.61.99,2.41,1.46,3.53,2.84,6.86,3.56,10.08,5.11,23.05,5.55,47.41,1.34,74.47-.56,3.59-1.36,7.16-2.39,10.61l-.22.75c-2.08,6.99-4.23,14.21-6.78,21.02-2.98,7.97-6.51,16.54-10.79,26.21-1.43,3.23-3.05,6.39-4.78,9.73-1.45,2.81-2.94,5.71-4.32,8.69-6.08,13.09-14.1,26.07-24.53,39.69l-.6.79c-12.79,16.72-26.03,34.02-41.8,48.33-13.36,12.12-24.65,20.14-36.63,26.01-3.62,1.77-7.17,3.68-10.6,5.52-2.57,1.38-5.23,2.81-7.83,4.13-2.76,1.4-5.51,2.84-8.26,4.29-7.29,3.83-14.18,7.44-21.38,10.41-8.12,3.35-16.73,6.23-25.07,9.02-3.76,1.26-7.65,2.56-11.48,3.89-13.59,4.75-26.38,6.62-39.09,5.74-1.48-.1-2.97-.23-4.46-.35-4.6-.38-9.37-.77-14.25-.64-5.24.14-10.49.27-15.73.4-23.46.58-47.72,1.19-71.6,2.45-25.29,1.34-49.07,1.4-72.67.2-5.59-.29-11.07.02-16.38.31-2.99.17-5.81.32-8.64.38-6.66.14-13.17.24-19.65,0-3.9-.14-7.76-.43-11.84-.73-3.74-.28-7.61-.56-11.48-.73-10.59-.45-21.17-.86-31.76-1.27-14.03-.54-28.54-1.1-42.79-1.75-5.12-.23-10.09-.88-14.78-1.93-8.77-1.96-17.68-4.17-26.3-6.29-4.25-1.05-8.5-2.1-12.75-3.12-4.55-1.1-9.02-3.2-14.05-6.62-6.84-4.64-11.82-11.14-17.21-19.46-5.34-8.26-5.72-17.14-1.16-27.16,4.48-9.84,11.52-19.28,21.53-28.86,1.28-1.23,2.8-2.21,3.87-2.49,6.05-1.63,12.9-3.47,19.4-4.08,13.46-1.25,22.27-7.8,26.18-19.46,3.29-9.79,6.15-18.68,8.74-27.16,1.82-5.97,3.59-12.04,5.3-17.9,3.22-11.04,6.54-22.46,10.3-33.42,4.54-13.25,8.99-27.67,10.8-43.31.27-2.31.76-3.38.95-3.73,2.18-3.88,4.49-7.65,6.93-11.6.55.48,1.11,1,1.7,1.53,10.53,9.64,21.67,17.38,33.11,22.98l.11.05c15.09,7.39,29.33,14.38,41.54,24.79,5.38,4.59,12.34,5.89,19.1,3.57,6.78-2.32,12.46-4.32,18.15-6.49l.7-.27c9.52-3.64,18.51-7.07,27.97-8.8,17.45-3.19,35.58-4.66,53.12-6.09,2.78-.23,5.56-.45,8.33-.68,12.47-1.04,24.9.94,37.99,6.07,4.54,1.78,9.15,3.5,13.61,5.16,6.05,2.26,12.31,4.59,18.33,7.05,11.01,4.5,21.23,2.93,30.37-4.64,7.97-6.61,17.42-12.61,29.72-18.88,8.13-4.15,15.93-8.58,25.12-13.97,4.64-2.72,9.2-4.63,13.95-5.85.04-.01.08-.02.12-.03.04.05.08.11.13.18,3.58,5.14,5.5,11.2,6.21,19.65,1.24,14.61,3.32,26.68,6.56,37.97,1.6,5.58,2.29,11.44,2.07,17.43-.22,5.89-.24,11.93-.06,18.49.1,3.82.73,7.23,1.86,10.13,3.05,7.79,9.65,12.41,18.12,12.68,8.62.26,16.37-4.98,19.2-13.07,1.07-3.07,1.68-6.62,1.85-10.85.23-5.78.49-12.33.1-18.78l-.13-2.17c-.41-6.97-.84-14.17-2.56-21.32-3.34-13.88-5.29-25.24-6.13-35.76-1.25-15.55-6.57-29.48-15.81-41.38-8.86-11.41-21.23-16.33-35.8-14.23-10.79,1.55-21.37,5.55-31.43,11.88l-2.02,1.27c-4.64,2.93-9.02,5.7-13.58,7.85-14.7,6.94-27.25,14.38-38.35,22.76-.06.04-.11.08-.16.12-4.61-1.88-9.31-3.64-13.84-5.35-3.82-1.44-7.77-2.93-11.59-4.45-19.53-7.78-38.34-10.75-57.49-9.08-3.96.35-7.92.72-11.89,1.09-6.92.65-14.08,1.32-21.09,1.83-27.7,2-51.94,7.88-74.07,18-8.52-6.83-18.53-12.72-31.48-18.52-11.96-5.35-23.04-12.56-32.96-21.44-3.83-3.43-7.98-6.44-12.32-8.94-8.14-4.69-17.14-6.61-26.76-5.72-11.48,1.07-19.61,7.54-23.53,18.71-1.27,3.63-3.15,7.36-5.42,10.78-5.51,8.29-8.66,16.71-9.65,25.74-1.09,10.01-3.43,19.75-7.15,29.78-3.11,8.38-5.71,16.97-8.22,25.28l-.33,1.08c-4.97,16.42-9.85,32.92-14.51,49.03l-2.25.46c-7.74,1.57-15.74,3.19-23.44,6.2-2.6,1.01-3.15.83-5.08-.61-6.71-5.04-13.63-9.92-20.32-14.63-1.7-1.2-3.4-2.4-5.09-3.59-1.98-1.4-4.16-2.84-6.69-3.89-7.94-3.3-16.75-1.55-22.46,4.45-6.19,6.51-7.27,16.31-2.64,23.83,2.2,3.58,5.39,7.04,9.21,10.01,3.87,3,7.87,5.77,11.75,8.44,1.95,1.35,3.9,2.69,5.83,4.07.84.6,1.68,1.21,2.52,1.83-1.56,2.23-3.08,4.38-4.61,6.51-4.07.7-8.15,1.37-12.23,2.04-4.79.79-9.59,1.58-14.38,2.41-3.21.56-6.63,1.21-9.99,2.53-8.97,3.53-14.43,11.9-13.58,20.83.84,8.87,7.93,15.93,17.63,17.58,2.85.49,5.9.55,8.81.19,2.87-.36,5.67-.86,8.38-1.34,0,0,.01,0,.02,0,0,1.12-.02,2.21-.06,3.3-.43,12.28,3.05,23.89,10.32,34.53.82,1.2,1.61,2.41,2.41,3.62.9,1.38,1.8,2.75,2.73,4.1,12.43,18.07,29.03,30.08,49.33,35.7,9.01,2.49,18.65,4.88,29.45,7.3,1.75.39,3.51.81,5.26,1.22,6.96,1.65,14.15,3.35,21.64,3.8,18.96,1.13,38.22,1.9,56.85,2.64,9.03.36,18.06.72,27.08,1.12,7.47.33,13.53.75,19.08,1.33,8.61.9,17.48.9,27.12,0,5.67-.53,12.23-1.06,18.39-.73,26.98,1.42,51.49,1.42,74.95,0,12.43-.76,25.17-1.1,37.49-1.43,6.92-.19,14.07-.38,21.12-.65l3.78-.14c14.49-.56,28.17-1.09,42.03.13,17.08,1.5,34.62-.92,53.65-7.4,4.1-1.4,8.22-2.86,12.21-4.28,5.58-1.98,11.34-4.04,17.01-5.88,12.1-3.94,23.97-9.2,35.27-15.63,7.21-4.1,14.79-8,22.12-11.77,2.65-1.36,5.31-2.73,7.95-4.11,15.17-7.9,27.69-16.7,38.29-26.92l3.63-3.49c13.42-12.89,27.29-26.22,38.02-42.57.08-.12.36-.45.56-.69l.25-.3c16.67-20.01,30.36-41.6,40.68-64.17.78-1.7,1.66-3.4,2.6-5.2.57-1.1,1.14-2.2,1.7-3.32,14.84-29.76,23.75-57.96,27.25-86.22,2.47-19.93,2.22-40.67-.77-63.41Z"/>
  <path class="cls-1" d="M335.04,573.67c14.7.02,26.11,2.85,36.88,7.9,9.02,4.23,17.9,8.81,26.56,13.72,12.14,6.89,20.6,17.59,28.17,28.99,1.33,2.01,2.08,4.71,2.23,7.15.59,9.56-9.21,15.79-17.59,11.15-2.44-1.35-4.43-3.68-6.32-5.83-3.22-3.68-6.12-7.64-9.31-11.35-1.65-1.91-3.39-3.9-5.48-5.25-12.97-8.38-26.31-16.06-41.46-19.9-7-1.78-13.99-1.64-20.98.21-1.92.51-3.9,1.01-5.86,1.05-5.17.11-9.18-2.12-11.42-6.85-2.24-4.74-1.54-9.45,2.03-13.12,2.18-2.24,5.16-4.21,8.14-5.06,5.53-1.58,11.32-2.25,14.4-2.82Z"/>
  <path class="cls-1" d="M482.65,568.32c4.67-.01,8.96,1.28,12.82,3.86,9.14,6.12,17.15,13.35,22.59,23.1.26.47.56.93.81,1.42,3.09,6.01,1.95,12.5-2.85,16.22-4.97,3.87-11.8,3.31-16.81-1.57-1.67-1.63-3.18-3.52-4.37-5.52-2.59-4.32-6.42-7.31-10.2-10.42-2.07-1.7-4.05-1.64-5.87-.07-1.89,1.64-3.51,3.58-5.18,5.46-1.67,1.88-3.02,4.13-4.93,5.72-4.01,3.34-9.51,3.66-13.73,1.05-4.46-2.75-6.23-6.89-5.74-12.03.1-1.07.34-2.16.67-3.18,4.12-12.72,19.47-23.96,32.79-24.04Z"/>
  <path class="cls-1" d="M698.84,570.86c6.72.06,10.8,1.69,13.15,6.2,2.38,4.58,1.2,8.96-1.84,12.67-1.79,2.19-4.2,3.98-6.59,5.55-12.73,8.35-25.52,16.61-38.35,24.81-2.11,1.35-4.39,2.67-6.78,3.3-4.53,1.2-8.7.08-11.84-3.56-3.25-3.77-4.14-8.25-1.93-12.67,1.41-2.81,3.5-5.73,6.06-7.45,13.07-8.81,26.32-17.37,39.69-25.72,2.97-1.85,6.68-2.5,8.43-3.12Z"/>
  <path class="cls-1" d="M698.45,665.54c-10.94-.71-19.1-1.1-27.22-1.83-3.21-.29-6.49-.99-9.5-2.13-6.18-2.35-9.38-7.92-8.35-13.67.97-5.41,5.8-9.37,12.13-9.89.9-.07,1.81-.05,2.72,0,14.3.76,28.6,1.52,42.9,2.29,1.99.11,4.1-.04,5.93.57,2.7.9,5.59,1.91,7.71,3.69,5.85,4.91,5.26,13.28-.9,17.81-3.38,2.49-7.3,3.1-11.34,3.14-5.62.06-11.24.02-14.08.02Z"/>
  <path class="cls-1" d="M382.44,530.31c8.75.01,15.76,6.81,15.8,15.33.04,8.02-6.27,14.66-14.22,14.98-5.86.23-10.66-2.84-12.76-8.28-.65-1.69-1.11-3.45-1.58-5.2-2.54-9.32,3.17-16.85,12.76-16.83Z"/>
  <path class="cls-1" d="M606.86,530.57c8.45-.02,14.86,6.15,14.71,14.16-.15,7.75-6.82,14.03-15.07,14.19-8.25.16-14.55-6.41-14.45-15.07.1-7.89,6.09-13.27,14.81-13.28Z"/>
</svg>